#define noname_width 64
#define noname_height 64
static char noname_bits[] = {
 0x00,0x00,0x00,0xfe,0x7f,0x00,0x00,0x00,0x00,0x00,0x00,0xfe,0xff,0x1f,0x00,
 0x00,0x00,0x00,0x00,0xfc,0xff,0x01,0x00,0x00,0x00,0x00,0x00,0xff,0xff,0x03,
 0x00,0x00,0x00,0x00,0x80,0xff,0xff,0x03,0x00,0x00,0x00,0x00,0xe0,0xf9,0xf8,
 0x06,0x00,0x00,0x00,0x00,0x00,0x7c,0xfc,0x06,0x00,0x00,0x00,0x00,0x00,0xfc,
 0xfe,0x07,0x00,0x00,0x00,0x00,0x00,0xfc,0xff,0x07,0x00,0x00,0x00,0x00,0x00,
 0xfc,0xff,0x0f,0x00,0x00,0x70,0x00,0x00,0xfe,0x0f,0x1f,0x00,0x00,0x88,0x00,
 0x00,0xfe,0x07,0x3f,0x00,0x00,0x88,0x00,0x00,0xfe,0xc3,0x3f,0x00,0x00,0x88,
 0x00,0x00,0xfe,0x01,0x01,0x00,0x00,0x70,0x00,0x00,0xfe,0x00,0x01,0x00,0x00,
 0xe0,0x00,0x00,0x7e,0x00,0x02,0x00,0x00,0xc0,0x00,0x00,0x3e,0x01,0x0e,0x00,
 0x00,0xc0,0x01,0x00,0x3e,0x03,0x0f,0x00,0x00,0x80,0x01,0x00,0x1e,0x6f,0x0f,
 0x00,0x00,0x80,0x01,0x00,0x1f,0xff,0x0f,0x00,0x00,0x80,0x03,0x80,0x1f,0x7f,
 0x0f,0x00,0x00,0x00,0x03,0xe0,0x1f,0x67,0x0e,0x00,0x00,0x00,0x03,0xe0,0x1f,
 0x63,0x08,0x00,0x00,0x00,0x07,0xf8,0x07,0x01,0x30,0x00,0x00,0x00,0x06,0xfc,
 0x07,0x00,0x70,0x00,0x00,0x00,0x06,0xfe,0x07,0x00,0xe0,0x00,0x00,0x00,0x06,
 0xff,0x07,0x00,0xe0,0x01,0x00,0x00,0x0c,0xff,0x07,0x00,0xe1,0x01,0x00,0x00,
 0x8c,0xff,0x07,0x00,0xe0,0x03,0x00,0x00,0xcc,0xff,0x0f,0x00,0xe0,0x07,0x00,
 0x00,0xd8,0xff,0x0f,0x00,0xc0,0x0f,0x00,0x00,0xd8,0x7f,0x0f,0x00,0xe1,0x1f,
 0x00,0x00,0xf8,0x3f,0x0f,0x00,0xc0,0x7f,0x00,0x00,0xf0,0x3f,0x0f,0x00,0xc0,
 0xff,0x00,0x00,0xf0,0x0f,0x0f,0x00,0xc0,0x7f,0x00,0x00,0x70,0x03,0x0f,0x00,
 0xc1,0x3f,0x00,0x00,0x60,0x00,0x0f,0x00,0xc0,0x3f,0x00,0x00,0x60,0x00,0x0f,
 0x00,0xc0,0x00,0x00,0x00,0x60,0x00,0x0f,0x00,0x40,0x00,0x00,0x00,0xc0,0x00,
 0x0f,0x80,0x40,0x00,0x00,0x00,0xc0,0x00,0x0f,0x00,0x40,0x00,0x00,0x00,0xc0,
 0x00,0x0f,0x00,0x40,0x00,0x00,0x00,0x80,0x00,0x0f,0x00,0x40,0x00,0x00,0x00,
 0x80,0x01,0x0f,0x40,0x20,0x00,0x00,0x00,0x80,0x01,0x0f,0x00,0x20,0x00,0x00,
 0x00,0x00,0x01,0x0f,0x20,0x20,0x00,0x00,0x00,0x00,0x03,0x1f,0x00,0x30,0x00,
 0x00,0x00,0x00,0x03,0x0f,0x00,0x10,0x00,0x00,0x00,0x00,0x02,0x0f,0x00,0x18,
 0x00,0x00,0x00,0x00,0x06,0x07,0x00,0x08,0x00,0x00,0x00,0x00,0x06,0x07,0x00,
 0x0c,0x00,0x00,0x00,0x00,0x04,0x07,0x00,0x06,0x00,0x00,0x00,0x00,0x04,0x07,
 0x00,0x07,0x00,0x00,0x00,0x00,0x80,0x07,0x00,0x02,0x00,0x00,0x00,0x00,0x80,
 0x07,0x00,0x02,0x00,0x00,0x00,0x00,0xc0,0x07,0x00,0x02,0x00,0x00,0x00,0x00,
 0xe0,0x2f,0x00,0x02,0x00,0x00,0x00,0x00,0xe0,0x2f,0xe0,0x02,0x00,0x00,0x00,
 0x00,0xf8,0x2f,0xd8,0x06,0x00,0x00,0x00,0x00,0xfc,0x27,0x8c,0x05,0x00,0x00,
 0x00,0x00,0xfe,0x33,0x06,0x1f,0x00,0x00,0x00,0x80,0xff,0xfd,0x86,0x3f,0x00,
 0x00,0xc0,0xfb,0x7f,0xff,0x83,0xff,0x00,0x00,0x00,0xff,0x83,0xff,0x07,0xf7,
 0xff,0x00};
