#define tape_width 32
#define tape_height 32
static char tape_bits[] = {
   0x00, 0x00, 0x00, 0x00, 0x00, 0x00, 0x00, 0x00, 0x00, 0x00, 0x00, 0x00,
   0x00, 0x00, 0x00, 0x00, 0xfe, 0xff, 0xff, 0x7f, 0x02, 0x00, 0x00, 0x40,
   0xe2, 0x07, 0xe0, 0x43, 0x12, 0x18, 0x18, 0x4c, 0x0a, 0x20, 0x04, 0x50,
   0x0a, 0x20, 0x04, 0x50, 0x06, 0x40, 0x02, 0x60, 0x86, 0x43, 0xc2, 0x61,
   0x86, 0x43, 0xc2, 0x61, 0x86, 0x43, 0xc2, 0x61, 0x06, 0x40, 0x02, 0x60,
   0x0a, 0x20, 0x04, 0x50, 0x0a, 0x20, 0x04, 0x50, 0x32, 0x18, 0x18, 0x4c,
   0xc2, 0x07, 0xe0, 0x43, 0x02, 0x00, 0x00, 0x40, 0xfe, 0xff, 0xff, 0x7f,
   0x00, 0x00, 0x00, 0x00, 0x00, 0x00, 0x00, 0x00, 0x00, 0x00, 0x00, 0x00,
   0x00, 0x00, 0x00, 0x00, 0x00, 0x00, 0x00, 0x00, 0x00, 0x00, 0x00, 0x00,
   0x00, 0x00, 0x00, 0x00, 0x00, 0x00, 0x00, 0x00, 0x00, 0x00, 0x00, 0x00,
   0x00, 0x00, 0x00, 0x00, 0x00, 0x00, 0x00, 0x00};
